HIERARCHY
ROOT Hips
{
	OFFSET 0.0000 0.0000 0.0000
	CHANNELS 6 Xposition Yposition Zposition Zrotation Xrotation Yrotation
	JOINT Ab
	{
		OFFSET -0.0000 8.1305 -0.0000
		CHANNELS 3 Zrotation Xrotation Yrotation
		JOINT Chest
		{
			OFFSET -0.0000 26.2902 -0.0000
			CHANNELS 3 Zrotation Xrotation Yrotation
			JOINT Neck
			{
				OFFSET -0.0000 26.2902 0.0000
				CHANNELS 3 Zrotation Xrotation Yrotation
				JOINT Head
				{
					OFFSET -0.0000 10.8167 0.0000
					CHANNELS 3 Zrotation Xrotation Yrotation
					End Site
					{
						OFFSET -0.0000 16.7167 0.0000
					}
				}
			}
			JOINT LeftCollar
			{
				OFFSET -0.0000 26.2902 0.0000
				CHANNELS 3 Zrotation Xrotation Yrotation
				JOINT LeftShoulder
				{
					OFFSET 19.6667 -0.0000 0.0000
					CHANNELS 3 Zrotation Xrotation Yrotation
					JOINT LeftElbow
					{
						OFFSET 27.2190 0.0000 0.0000
						CHANNELS 3 Zrotation Xrotation Yrotation
						JOINT LeftWrist
						{
							OFFSET 30.7431 0.0000 0.0000
							CHANNELS 3 Zrotation Xrotation Yrotation
							End Site
							{
								OFFSET 0.0000 -14.7500 0.0000
							}
						}
					}
				}
			}
			JOINT RightCollar
			{
				OFFSET -0.0000 26.2902 0.0000
				CHANNELS 3 Zrotation Xrotation Yrotation
				JOINT RightShoulder
				{
					OFFSET -19.6667 0.0000 0.0000
					CHANNELS 3 Zrotation Xrotation Yrotation
					JOINT RightElbow
					{
						OFFSET -27.2190 0.0000 0.0000
						CHANNELS 3 Zrotation Xrotation Yrotation
						JOINT RightWrist
						{
							OFFSET -30.7431 0.0000 0.0000
							CHANNELS 3 Zrotation Xrotation Yrotation
							End Site
							{
								OFFSET -0.0000 -14.7500 0.0000
							}
						}
					}
				}
			}
		}
	}
	JOINT LeftHip
	{
		OFFSET 11.8000 0.0000 0.0000
		CHANNELS 3 Zrotation Xrotation Yrotation
		JOINT LeftKnee
		{
			OFFSET -0.0000 -39.7832 0.0000
			CHANNELS 3 Zrotation Xrotation Yrotation
			JOINT LeftAnkle
			{
				OFFSET -0.0000 -41.7317 0.0000
				CHANNELS 3 Zrotation Xrotation Yrotation
				End Site
				{
					OFFSET -0.0000 -4.9167 16.7167
				}
			}
		}
	}
	JOINT RightHip
	{
		OFFSET -11.8000 0.0000 0.0000
		CHANNELS 3 Zrotation Xrotation Yrotation
		JOINT RightKnee
		{
			OFFSET -0.0000 -39.7832 0.0000
			CHANNELS 3 Zrotation Xrotation Yrotation
			JOINT RightAnkle
			{
				OFFSET -0.0000 -41.7317 0.0000
				CHANNELS 3 Zrotation Xrotation Yrotation
				End Site
				{
					OFFSET -0.0000 -4.9167 16.7167
				}
			}
		}
	}
}
MOTION
Frames: 17
Frame Time: 0.010000
-12.7397 86.7849 80.5585 354.9259 349.4061 199.8495 359.0615 348.0178 358.6739 359.2848 14.7711 358.8688 348.6781 351.1826 352.6401 9.4481 7.4512 352.8960 338.0127 357.0360 15.0668 324.1928 53.4463 338.1251 10.3758 356.2915 320.6757 88.7512 357.3507 348.0849 27.9500 355.9131 343.7298 48.9803 39.6974 358.7778 338.9261 353.9907 31.4785 272.6094 355.0545 9.1102 357.2141 17.1616 359.6097 357.6702 6.2527 2.4068 348.0740 346.5628 14.0035 334.6350 329.5550 2.0795 15.3728 20.0434 5.6475 358.5034 342.3248 315.0827 
-12.5175 86.8269 79.6760 355.2136 349.1979 199.6816 359.5142 347.8807 358.8740 359.4308 14.8995 359.0075 348.7119 350.8492 352.5645 9.2081 7.5607 352.8564 337.8760 357.0405 14.8346 323.5614 53.1135 338.7005 10.4859 356.2375 320.5570 88.8808 357.4322 347.9611 27.8526 355.9123 343.7260 48.9745 39.8884 358.9048 338.8284 354.0084 31.0481 272.8049 355.1329 9.0662 357.6131 17.0598 359.8848 357.7611 6.6962 2.6852 347.2974 347.1658 14.0254 334.7624 328.8487 1.2496 16.0524 21.6739 5.9715 358.9392 341.8163 315.4976 
-12.2822 86.8911 78.7609 355.5190 349.0579 199.4526 0.0079 347.7655 359.0352 359.5623 15.0598 359.0963 348.8114 350.5384 352.5291 8.9164 7.6472 352.8584 337.6134 357.0563 14.4273 322.7346 52.2927 340.1694 10.2895 356.2860 319.6687 89.1104 357.6722 347.6200 27.7158 355.9932 343.8548 49.1361 40.0696 358.8603 338.6809 354.0362 30.5027 273.1117 355.1601 9.2261 358.1457 17.1292 359.9942 357.6244 6.9033 2.9802 346.8508 347.9801 14.3013 335.1080 328.3078 0.4997 16.4687 22.9876 5.8931 359.5766 341.2914 316.4715 
-12.0842 86.9662 77.8597 355.6101 348.9400 199.2320 0.3267 347.8750 359.0982 359.7049 14.9697 359.1064 348.7495 350.3890 352.5633 8.8162 7.7496 352.9164 338.5131 357.3200 14.0840 319.0346 53.8571 342.3506 13.1705 354.6431 320.3169 87.9639 357.3539 348.0493 27.4885 356.0789 344.0843 49.5114 40.2270 358.6487 338.4925 354.0564 30.0567 273.5848 355.1320 9.5749 358.3941 17.2564 0.3799 357.6129 7.2001 3.1768 344.5554 348.7167 14.2939 335.2734 327.9598 359.6329 16.6614 24.2659 6.2802 0.4437 340.7451 317.1278 
-11.8695 87.0542 76.8942 355.6728 348.9315 199.0646 0.4036 348.1745 359.1733 0.1768 14.6355 359.1151 348.6115 350.4670 352.6121 8.7278 7.8582 352.9693 338.2495 357.2826 14.1615 319.2863 54.1379 342.3340 13.1675 354.9671 320.1647 88.4656 357.6111 348.9207 27.2263 356.1244 344.0938 49.5106 40.4772 358.6750 338.4374 354.1366 29.6760 273.7856 355.3763 9.6208 358.7016 17.5196 0.8664 357.6621 7.4175 3.4077 344.1420 349.9327 14.1365 335.5794 328.0010 359.2062 16.7691 25.1025 6.6573 1.3728 340.3149 317.5603 
-11.6786 87.1720 75.9306 355.5995 348.8407 198.9545 0.4782 348.2881 359.1465 0.3540 14.5122 359.0516 348.4153 350.6670 352.6429 9.1638 7.8264 352.9675 338.3642 357.3115 14.1460 318.9034 54.6304 342.6136 13.5260 354.9007 320.0909 88.7763 357.7433 349.6330 27.0115 356.1498 344.1011 49.6206 40.8142 358.7241 338.3476 354.1927 29.3050 274.0833 355.5429 9.5101 358.8498 17.7350 1.3746 357.6677 7.5897 3.6478 343.9190 351.2573 14.1353 335.7441 328.2267 358.7519 16.7982 25.6239 7.0919 1.7760 339.9980 317.8133 
-11.4912 87.3114 74.9692 355.4392 348.7093 198.9640 0.3421 348.3545 359.1194 0.6584 14.4415 358.9995 348.3859 350.7001 352.6557 9.0897 8.0366 352.9647 338.4900 357.3079 14.2228 318.6740 55.4086 342.5670 13.9359 354.7706 320.1388 88.8994 357.8351 350.1974 26.8169 356.1696 344.0608 49.5290 41.0423 358.9033 338.3325 354.2691 29.0347 274.4179 355.7419 9.5319 358.9016 17.8406 1.8849 357.7351 7.8613 4.4079 343.9674 352.8863 13.5924 335.7998 328.6629 358.3715 16.8615 25.8617 7.4674 1.5453 339.7852 317.8123 
-11.3128 87.4821 74.0145 355.2610 348.5238 199.0729 0.4170 348.2464 358.9907 0.4714 14.5487 358.8807 348.4507 350.7877 352.6338 9.4064 8.2369 352.8872 338.8329 357.3375 14.3789 318.9402 56.3010 341.9151 14.2424 354.7003 320.3031 88.8503 357.9142 350.8144 26.8182 356.1401 343.9911 49.4227 41.1719 359.1778 338.4119 354.3580 28.8406 274.4371 355.8748 9.7331 359.0464 17.6681 1.7640 357.6078 8.4539 5.3844 344.2445 354.3339 13.1417 335.8292 329.2063 357.9441 16.8324 25.9774 8.0016 1.0219 339.6645 317.7238 
-11.1240 87.6848 73.0849 355.0672 348.2794 199.1849 0.2702 348.2933 358.9460 0.5938 14.2885 358.8432 348.5837 350.9005 352.7480 9.2396 8.4568 352.9805 338.8439 357.3114 14.5169 319.0967 56.6570 341.7367 14.0118 354.9279 320.1641 88.8245 357.9644 350.8729 26.7038 356.1439 343.8194 49.2030 41.4053 359.5078 338.4747 354.4375 28.6987 274.2674 355.8816 9.4532 359.0322 17.4780 2.2227 357.6386 8.9422 5.7294 344.5521 355.5500 12.9971 335.8732 329.7271 357.8366 16.8555 26.0347 9.1102 0.3402 339.3611 316.8447 
-10.9285 87.9053 72.1619 354.9413 348.0636 199.3376 0.2383 348.3325 358.8876 0.6166 14.0567 358.7852 348.8341 351.0859 352.7373 9.0188 8.6492 352.9240 338.7515 357.2586 14.5007 319.6545 56.7145 341.5404 13.3211 355.2685 319.6771 89.1225 358.1605 350.7923 26.7511 356.0944 343.6587 48.8740 41.1145 359.7309 338.6870 354.4937 28.8209 274.5543 356.0436 9.9874 359.1192 17.2316 2.4888 357.7368 9.4604 5.4858 345.2699 356.8843 13.1695 336.0228 330.2905 357.8388 16.8613 25.9268 9.4355 359.9612 339.0453 316.5318 
-10.7318 88.1520 71.2757 354.8892 347.7571 199.4825 0.2453 348.3118 358.8758 0.6533 13.7673 358.7712 349.0170 351.1042 352.6564 8.7405 9.0235 352.8162 338.7415 357.2560 14.5091 319.8088 56.7664 341.4061 12.7076 355.5037 319.4598 89.0608 358.0113 349.9561 26.7750 356.0583 343.5356 48.5929 40.6543 359.8745 338.9474 354.5495 29.0814 274.2905 356.1482 10.0934 359.1312 16.6904 2.7238 357.8275 10.2342 5.9543 348.5457 358.7290 12.2931 336.2116 330.7297 358.0716 16.9480 25.7012 9.3753 359.5389 338.8271 316.3409 
-10.5338 88.4012 70.4124 354.9590 347.5431 199.7072 0.4594 348.4449 358.8320 0.4461 13.1452 358.7301 349.6874 351.8946 352.6828 8.2754 8.6954 352.7816 338.8309 357.2994 14.2814 319.5105 56.6815 341.9765 12.0742 355.7251 319.1558 88.9278 357.8694 348.8824 26.8827 356.0558 343.6286 48.6649 39.9384 359.4596 339.1725 354.5574 29.5035 274.4972 355.9361 10.7282 359.2193 16.2108 3.0987 358.1677 10.8154 5.7844 349.3161 359.8019 11.7675 336.5813 331.2667 358.3713 16.9647 25.3189 8.9410 359.2856 338.7423 316.4860 
-10.3487 88.6740 69.5689 354.9778 347.2330 199.7996 0.5460 348.3728 358.8589 0.4937 12.9339 358.7473 349.6712 351.8526 352.6202 8.2093 8.8855 352.7163 338.9290 357.3532 14.2392 319.1450 56.6305 342.1751 11.6678 355.8075 318.8609 88.5796 357.6595 347.8075 26.8522 356.0647 343.6087 48.3620 39.3275 359.5904 339.3703 354.5370 29.9302 274.5401 355.9431 11.0395 359.2334 15.5180 3.2112 358.1270 11.6005 6.1473 351.8822 0.7491 11.5282 336.9119 331.6348 358.7013 17.0263 24.9729 8.3559 358.7463 338.7810 316.5755 
-10.1513 88.9228 68.7197 355.0851 346.9941 199.9581 0.6490 348.2807 358.8508 0.6167 12.8155 358.7143 349.7913 351.7697 352.5197 8.0483 9.0381 352.6132 339.0832 357.3513 14.1209 318.8207 56.9125 342.2595 11.6181 355.7045 318.6601 88.2442 357.5846 347.2795 26.8238 356.0373 343.5600 48.0843 38.7010 359.6644 339.4121 354.4277 30.5660 274.1409 355.9048 10.7629 359.3769 14.8678 3.3391 358.0216 12.2049 7.5156 353.5688 1.4123 10.9830 337.3887 332.0777 358.8491 16.8465 24.6673 8.0821 358.4460 338.8777 316.7582 
-9.9868 89.1539 67.8997 355.1315 346.8262 200.1111 0.7714 348.2925 358.8458 0.6646 12.7052 358.6923 349.8611 351.6038 352.3960 7.9938 9.2151 352.4905 339.2499 357.4339 14.0730 318.6273 57.2212 342.1974 11.5607 355.6562 318.4175 88.1555 357.6477 346.8825 26.7897 356.0765 343.5487 47.7833 38.1833 359.7551 339.5230 354.3573 31.0884 274.3798 356.0708 10.8052 359.4635 14.2497 3.4978 357.8202 12.8719 8.0934 352.1870 359.8305 11.5784 337.7818 332.5919 358.8938 16.5753 24.4199 8.5231 358.1235 339.1200 316.5250 
-9.7895 89.3744 67.1418 355.1675 346.5448 200.2000 0.7854 348.3424 358.8997 0.7390 12.4505 358.7434 349.9515 351.3878 352.2704 7.9598 9.3890 352.3672 339.3586 357.4204 14.1780 318.7554 57.3718 341.8859 11.5547 355.6024 318.1475 87.6968 357.6951 346.6330 26.7875 356.0480 343.5243 47.4234 37.8570 359.8513 339.4918 354.2180 31.6560 274.2621 355.8848 10.7276 359.4868 13.6470 3.7391 357.5516 12.9040 8.5115 351.5910 358.6131 11.6181 338.1674 332.8812 359.0275 16.2207 24.3550 9.1035 357.5875 339.5088 316.2470 
-9.6312 89.5861 66.3477 355.0917 346.3496 200.2400 0.7489 348.3499 358.9173 0.7680 12.3613 358.7583 349.9927 351.3201 352.1253 8.1015 9.3775 352.2135 339.5414 357.4377 14.2004 318.7559 57.8741 341.5916 11.8018 355.4274 318.0471 88.0111 357.7729 347.0893 26.6960 356.0339 343.3740 47.1685 37.6977 0.1011 339.3871 354.0629 32.1298 274.2426 355.8143 10.8011 359.3578 13.3342 4.2475 357.4308 12.3958 8.3706 350.8824 357.3323 11.7873 338.4865 333.3256 359.2043 16.0189 24.1455 9.4151 357.1866 339.6915 315.8712 
